<mxfile host="app.diagrams.net" agent="Mozilla/5.0 (X11; CrOS x86_64 14541.0.0) AppleWebKit/537.36 (KHTML, like Gecko) Chrome/135.0.0.0 Safari/537.36" version="27.0.1">
  <diagram name="Page-1" id="DjCYF6uy0LVIQyceeGen">
    <mxGraphModel dx="1023" dy="1766" grid="1" gridSize="10" guides="1" tooltips="1" connect="1" arrows="1" fold="1" page="1" pageScale="1" pageWidth="827" pageHeight="1169" math="0" shadow="0">
      <root>
        <mxCell id="0" />
        <mxCell id="1" parent="0" />
        <mxCell id="8Dinq5a4Zg-UIL0Mp-4--3" value="" style="edgeStyle=orthogonalEdgeStyle;rounded=0;orthogonalLoop=1;jettySize=auto;html=1;" edge="1" parent="1">
          <mxGeometry relative="1" as="geometry">
            <mxPoint x="430" y="100" as="sourcePoint" />
            <mxPoint x="430" y="180" as="targetPoint" />
          </mxGeometry>
        </mxCell>
        <mxCell id="8Dinq5a4Zg-UIL0Mp-4--6" value="" style="edgeStyle=orthogonalEdgeStyle;rounded=0;orthogonalLoop=1;jettySize=auto;html=1;" edge="1" parent="1" source="8Dinq5a4Zg-UIL0Mp-4--4" target="8Dinq5a4Zg-UIL0Mp-4--5">
          <mxGeometry relative="1" as="geometry" />
        </mxCell>
        <mxCell id="8Dinq5a4Zg-UIL0Mp-4--4" value="initialize count=0;&lt;div&gt;initialize num=1;&lt;/div&gt;&lt;div&gt;initilize output=&quot; &quot;&lt;/div&gt;" style="rounded=0;whiteSpace=wrap;html=1;" vertex="1" parent="1">
          <mxGeometry x="330" y="180" width="200" height="110" as="geometry" />
        </mxCell>
        <mxCell id="8Dinq5a4Zg-UIL0Mp-4--8" value="" style="edgeStyle=orthogonalEdgeStyle;rounded=0;orthogonalLoop=1;jettySize=auto;html=1;" edge="1" parent="1" source="8Dinq5a4Zg-UIL0Mp-4--5" target="8Dinq5a4Zg-UIL0Mp-4--7">
          <mxGeometry relative="1" as="geometry" />
        </mxCell>
        <mxCell id="8Dinq5a4Zg-UIL0Mp-4--5" value="while count&amp;nbsp; (&amp;lt;20)&amp;nbsp;&lt;div&gt;add num to output&lt;/div&gt;&lt;div&gt;count ++&lt;br&gt;num+=2&lt;/div&gt;" style="rounded=0;whiteSpace=wrap;html=1;" vertex="1" parent="1">
          <mxGeometry x="330" y="370" width="200" height="110" as="geometry" />
        </mxCell>
        <mxCell id="8Dinq5a4Zg-UIL0Mp-4--10" value="" style="edgeStyle=orthogonalEdgeStyle;rounded=0;orthogonalLoop=1;jettySize=auto;html=1;" edge="1" parent="1" source="8Dinq5a4Zg-UIL0Mp-4--7" target="8Dinq5a4Zg-UIL0Mp-4--9">
          <mxGeometry relative="1" as="geometry" />
        </mxCell>
        <mxCell id="8Dinq5a4Zg-UIL0Mp-4--7" value="set div text content&amp;nbsp; to output" style="rounded=0;whiteSpace=wrap;html=1;" vertex="1" parent="1">
          <mxGeometry x="310" y="550" width="240" height="110" as="geometry" />
        </mxCell>
        <mxCell id="8Dinq5a4Zg-UIL0Mp-4--9" value="end" style="ellipse;whiteSpace=wrap;html=1;" vertex="1" parent="1">
          <mxGeometry x="310" y="750" width="240" height="120" as="geometry" />
        </mxCell>
        <mxCell id="8Dinq5a4Zg-UIL0Mp-4--12" value="start" style="ellipse;whiteSpace=wrap;html=1;" vertex="1" parent="1">
          <mxGeometry x="320" y="10" width="240" height="100" as="geometry" />
        </mxCell>
        <mxCell id="8Dinq5a4Zg-UIL0Mp-4--13" value="add the old number flowchart" style="text;html=1;align=center;verticalAlign=middle;resizable=0;points=[];autosize=1;strokeColor=none;fillColor=none;" vertex="1" parent="1">
          <mxGeometry x="70" y="-70" width="180" height="30" as="geometry" />
        </mxCell>
      </root>
    </mxGraphModel>
  </diagram>
</mxfile>
